<?xml version="1.0" encoding="UTF-8" standalone="no"?>
<!-- Created with Inkscape (http://www.inkscape.org/) -->

<svg
   width="100mm"
   height="100mm"
   viewBox="0 0 100 100"
   version="1.1"
   id="svg1"
   inkscape:version="1.4.3 (149b9ee4ec, 2026-03-26)"
   sodipodi:docname="seraphim.svg"
   inkscape:export-filename="icon-512.png"
   inkscape:export-xdpi="130.048"
   inkscape:export-ydpi="130.048"
   xmlns:inkscape="http://www.inkscape.org/namespaces/inkscape"
   xmlns:sodipodi="http://sodipodi.sourceforge.net/DTD/sodipodi-0.dtd"
   xmlns="http://www.w3.org/2000/svg"
   xmlns:svg="http://www.w3.org/2000/svg">
  <sodipodi:namedview
     id="namedview1"
     pagecolor="#505050"
     bordercolor="#ffffff"
     borderopacity="1"
     inkscape:showpageshadow="0"
     inkscape:pageopacity="0"
     inkscape:pagecheckerboard="1"
     inkscape:deskcolor="#505050"
     inkscape:document-units="mm"
     inkscape:zoom="1.4770915"
     inkscape:cx="142.17129"
     inkscape:cy="276.89552"
     inkscape:window-width="1054"
     inkscape:window-height="1000"
     inkscape:window-x="26"
     inkscape:window-y="23"
     inkscape:window-maximized="0"
     inkscape:current-layer="layer1" />
  <defs
     id="defs1" />
  <rect
     style="fill:#ffffff;fill-opacity:1;stroke:#ffffff;stroke-width:1.39148;stroke-dasharray:none;stroke-opacity:1"
     id="rect3"
     width="98.608521"
     height="98.608521"
     x="0.69573975"
     y="0.69573975"
     ry="10.012243" />
  <g
     inkscape:label="Layer 1"
     inkscape:groupmode="layer"
     id="layer1">
    <path
       style="fill:#eb401c;fill-opacity:1;stroke:#ffffff;stroke-width:1.13905;stroke-dasharray:none;stroke-opacity:1"
       d="M 38.545164,44.119495 C 30.429975,39.396192 34.053758,30.3658 36.686521,26.617483 43.57967,16.803579 55.998962,13.270731 65.800539,10.747855 70.582175,9.5170863 54.879158,20.920394 52.184724,37.291847 c -2.239635,13.608088 -13.63956,6.827648 -13.63956,6.827648 z"
       id="path1-2-9-9-7"
       sodipodi:nodetypes="csssc" />
    <path
       style="fill:#eb401c;fill-opacity:1;stroke:#ffffff;stroke-width:1.13905;stroke-dasharray:none;stroke-opacity:1"
       d="M 61.099075,43.923314 C 69.214264,39.20001 65.590482,30.169618 62.957718,26.421301 56.064569,16.607398 43.645277,13.07455 33.8437,10.551673 c -4.781636,-1.2307684 10.921381,10.17254 13.615815,26.543993 2.239635,13.608088 13.63956,6.827648 13.63956,6.827648 z"
       id="path1-2-9-9"
       sodipodi:nodetypes="csssc" />
    <path
       style="fill:#eb401c;fill-opacity:1;stroke:#ffffff;stroke-width:1.13905;stroke-dasharray:none;stroke-opacity:1"
       d="M 61.293111,56.076686 C 69.4083,60.799989 65.784518,69.830381 63.151754,73.578698 56.258605,83.392602 43.839313,86.92545 34.037736,89.448327 29.2561,90.679095 44.959117,79.275787 47.653551,62.904334 49.893187,49.296245 61.293111,56.076686 61.293111,56.076686 Z"
       id="path1-2-9-9-3"
       sodipodi:nodetypes="csssc" />
    <path
       style="fill:#eb401c;fill-opacity:1;stroke:#ffffff;stroke-width:1.13905;stroke-dasharray:none;stroke-opacity:1"
       d="M 38.7392,55.880504 C 30.624011,60.603807 34.247794,69.6342 36.880557,73.382517 43.773707,83.196421 56.192998,86.729268 65.994575,89.252145 70.776211,90.482914 55.073194,79.079606 52.37876,62.708152 50.139125,49.100064 38.7392,55.880504 38.7392,55.880504 Z"
       id="path1-2-9-9-7-6"
       sodipodi:nodetypes="csssc" />
    <path
       style="fill:#eb401c;fill-opacity:1;stroke:#ffffff;stroke-width:1.07698;stroke-dasharray:none;stroke-opacity:1"
       d="m 57.719144,48.909098 c 0.684507,-9.386522 9.339531,-10.006873 13.365246,-9.242696 10.540198,2.000783 18.14905,11.717251 23.940692,19.50031 2.82542,3.796916 -12.374877,-5.49241 -26.57835,-0.859727 -11.80604,3.850724 -10.727588,-9.397887 -10.727588,-9.397887 z"
       id="path1-0"
       sodipodi:nodetypes="csssc" />
    <path
       style="fill:#eb401c;fill-opacity:1;stroke:#ffffff;stroke-width:1.07698;stroke-dasharray:none;stroke-opacity:1"
       d="M 45.093222,48.991068 C 44.408715,39.604546 35.753691,38.984195 31.727976,39.748372 21.187778,41.749155 13.578926,51.465623 7.787284,59.248682 c -2.82542,3.796916 12.374877,-5.49241 26.57835,-0.859727 11.80604,3.850724 10.727588,-9.397887 10.727588,-9.397887 z"
       id="path1-0-4"
       sodipodi:nodetypes="csssc" />
    <circle
       style="fill:#ebad1c;stroke:#ffffff;stroke-width:1.0466;stroke-dasharray:none;stroke-opacity:1"
       id="path2"
       cx="50.474937"
       cy="46.697628"
       r="13.671371" />
    <path
       style="fill:#eb4033;fill-opacity:1;stroke:#ffffff;stroke-width:0.994209;stroke-dasharray:none;stroke-opacity:1"
       d="m 50.322608,55.106933 c -3.914669,-0.495168 -5.327612,-2.116823 -5.844344,-4.86354 -0.849034,-4.513053 2.640201,-7.411833 2.585252,-9.341866 -0.02671,-0.936675 0.798265,1.551345 1.594474,2.926813 1.836206,3.172119 2.328121,-3.026117 0.802063,-6.217204 -1.4544,-3.041256 10.512376,6.87233 6.900434,13.919577 -2.255914,4.401501 -6.037879,3.57622 -6.037879,3.57622 z"
       id="path3"
       sodipodi:nodetypes="csssssc" />
  </g>
</svg>
